# xmcd
#
# Track frame offsets: 
#        150
#        16019
#        36944
#        71314
#        89914
#        125834
#        149704
#        173744
#        204719
#        224132
#        256399
#        274597
#        307902
#        328377
#
# Disc length: 4629 seconds
#
# Revision: 1
# Processed by: cddbd v1.5.2PL0 Copyright (c) Steve Scherf et al.
# Submitted via: ExactAudioCopy v1.0b3
#
DISCID=e112130e
DTITLE=Venom Blues - Walkin into Midnight
DYEAR=2010
DGENRE=Blues
TTITLE0=Blues Baby
TTITLE1=Blues an Trouble
TTITLE2=Beatin' Knockin' and Ringin'
TTITLE3=Standin' on the Corner
TTITLE4=Nineteen Years Old
TTITLE5=Venom Blues Boogie
TTITLE6=Everyday I have the Blues
TTITLE7=Down the Road
TTITLE8=Blues News
TTITLE9=If trouble Was money
TTITLE10=Walkin into Midnight
TTITLE11=Stormy Monday
TTITLE12=Deliver the News
TTITLE13=D Jam
EXTD=
EXTT0=
EXTT1=
EXTT2=
EXTT3=
EXTT4=
EXTT5=
EXTT6=
EXTT7=
EXTT8=
EXTT9=
EXTT10=
EXTT11=
EXTT12=
EXTT13=
PLAYORDER=
